<svg width="478" height="433" viewBox="0 0 478 433" fill="none" xmlns="http://www.w3.org/2000/svg">
<path fill-rule="evenodd" clip-rule="evenodd" d="M239.013 61.2999C379.576 82.4206 477.6 154.183 477.6 268.759C477.6 406.092 355.823 263.4 271.853 343.469C187.883 423.538 8.98326 425.808 0.425559 268.759C-7.58552 121.742 98.4493 40.1791 239.013 61.2999Z" fill="#0175FD" fill-opacity="0.8"/>
<path d="M347.097 276.401H250.585V421.374H347.097V276.401Z" fill="#B2B2B2"/>
<path d="M250.962 276.401H154.45V421.374H250.962V276.401Z" fill="#D1D1D1"/>
<path d="M200.398 100.595L196.283 178.523L176.937 235.668H211.767L229.857 186.432L235.51 130.476L200.398 100.595Z" fill="#F7EBE7"/>
<path d="M199.424 372.97L206.428 403.862L182.904 406.508L176.215 376.092L199.424 372.97Z" fill="#FCC9A7"/>
<path d="M207.841 401.067C207.244 399.402 205.36 398.807 204.072 399.878C201.56 401.989 197.037 404.575 190.348 403.951C183.407 403.297 180.8 399.432 179.795 396.637C179.261 395.18 177.785 394.437 176.466 395.061L134.35 415.1C131.806 416.319 129.796 418.579 128.791 421.404C127.849 424.05 129.734 426.904 132.372 426.845L205.14 424.942C207.998 424.882 210.196 422.206 209.945 419.114L208.752 403.951C208.72 403.713 208.689 403.446 208.595 403.208L207.841 401.067Z" fill="#1F252A"/>
<path d="M199.016 223.597H144.4C144.4 223.597 111.141 221.842 109.162 247.68C107.184 273.517 157.936 347.43 165.882 386.914L211.547 383.347L178.664 275.984L260.446 276.43C266.508 276.46 272.538 275.628 278.254 273.755C294.177 268.522 318.485 261.029 305.232 219.523L199.016 223.597Z" fill="#092330"/>
<path d="M241.163 373.089L252.281 410.016L228.757 412.662L217.954 376.211L241.163 373.089Z" fill="#FCC9A7"/>
<path d="M253.694 407.221C253.097 405.556 251.213 404.962 249.925 406.032C247.413 408.143 242.89 410.73 236.201 410.105C229.26 409.451 226.653 405.586 225.648 402.791C225.114 401.334 223.638 400.591 222.319 401.216L180.203 421.255C177.659 422.474 175.649 424.734 174.644 427.558C173.702 430.204 175.587 433.059 178.225 432.999L252.249 431.096C255.107 431.037 257.306 428.361 257.054 425.269L254.573 410.105C254.542 409.868 254.511 409.6 254.416 409.362L253.694 407.221Z" fill="#1F252A"/>
<path d="M264.278 69.9716C265.503 71.1014 320.307 84.3321 320.307 84.3321L308.593 113.797L248.669 109.515L264.278 69.9716Z" fill="#F7EBE7"/>
<path d="M241.665 77.0775C241.665 77.0775 205.956 89.4163 200.397 100.595C202.313 116.383 208.186 131.576 217.859 144.569C229.731 160.505 244.398 187.889 241.697 223.597H344.929C344.929 223.597 339.37 123.132 308.812 84.57L241.665 77.0775Z" fill="#F7EBE7"/>
<path d="M254.397 111.014C264.541 109.052 271.074 99.686 269.001 90.0826L262.94 61.9858L226.226 69.0918L232.287 97.1885C234.36 106.792 244.253 112.976 254.397 111.014Z" fill="#FCC9A7"/>
<path d="M265.452 71.7974C265.452 71.7974 261.589 94.5721 242.871 95.9397C226.477 97.129 228.047 74.6814 228.047 74.6814L265.452 71.7974Z" fill="#F4BE9A"/>
<path d="M244.347 83.4523L247.582 82.7387C263.819 79.1709 273.932 63.8292 270.163 48.4875L265.892 30.9753C262.123 15.6039 245.918 6.0302 229.712 9.59804L226.477 10.3116C210.24 13.8794 200.127 29.2211 203.896 44.5628L208.167 62.075C211.936 77.4464 228.142 87.0201 244.347 83.4523Z" fill="#FCC9A7"/>
<path d="M259.988 55.7718C259.234 56.9908 258.512 58.8342 258.26 61.629C257.978 65.1671 256.093 68.5268 252.953 70.4891C243.939 76.1382 237.061 61.8371 223.745 64.3643C223.745 64.3643 218.532 65.1076 217.495 70.608C216.459 76.0787 209.204 66.505 207.602 59.964C206 53.4229 205.184 92.3421 237.972 89.0418C237.972 89.0418 254.523 88.5364 265.672 72.5703C266.897 70.8161 267.62 68.7646 267.682 66.6536C267.777 63.5318 267.305 58.8044 264.165 55.415C263.066 54.1662 260.867 54.3446 259.988 55.7718Z" fill="#1C2226"/>
<path d="M260.02 46.9415C260.02 46.9415 245.855 42.5114 248.242 22.918C248.242 22.918 213.067 54.4339 187 31.3024C187 31.3024 198.652 28.359 203.457 20.807C212.219 7.04114 237.407 -11.9279 257.57 10.0143C257.57 10.0143 282.098 6.41677 275.063 42.1843L260.02 46.9415Z" fill="#1C2226"/>
<path d="M260.019 46.9414C261.369 52.4121 267.148 55.8312 272.927 54.5825C278.737 53.304 282.317 47.8333 280.998 42.3627C279.648 36.892 273.869 33.4728 268.09 34.7215C262.28 36 258.668 41.4707 260.019 46.9414Z" fill="#FCC9A7"/>
<path d="M241.1 91.9138L256.269 92.1814L245.654 112.994L234.191 93.0436L241.1 91.9138Z" fill="#0C2C40"/>
<path d="M269.271 70.8932L249.737 92.4786L262.456 106.304L285.854 75.8585C285.854 75.8585 279.855 66.7307 269.271 70.8932Z" fill="#FFF7F3"/>
<path d="M241.101 91.9139L229.857 103.926L221.943 85.1945C221.943 85.1945 224.016 76.7803 230.485 78.3859L241.101 91.9139Z" fill="#FFF7F3"/>
<path d="M245.246 106.274C245.246 106.274 230.579 142.488 234.222 193.865L248.669 206.352L265.534 190.981L247.35 103.925L245.246 106.274Z" fill="#0C2C40"/>
<path d="M272.664 192.259L241.257 202.041L239.185 219.494L280.829 207.72L272.664 192.259Z" fill="#FCC9A7"/>
<path d="M245.937 213.577C245.937 223.775 237.206 232.07 226.402 232.07C215.629 232.07 206.867 223.805 206.867 213.577C206.867 203.379 215.598 195.084 226.402 195.084C237.174 195.084 245.937 203.349 245.937 213.577Z" fill="#FCC9A7"/>
<path d="M241.666 223.597H187.082C187.082 223.597 153.822 221.842 151.844 247.68C149.865 273.517 204.355 352.187 212.301 391.642L257.966 388.074L221.346 275.955L303.128 276.401C309.189 276.43 315.219 275.598 320.935 273.725C336.858 268.492 361.167 260.999 347.913 219.494L241.666 223.597Z" fill="#0C2C40"/>
<path d="M77.0024 132.23H171.378C174.488 132.23 177.157 134.282 177.817 137.166L195.592 216.075C196.472 219.94 193.331 223.597 189.154 223.597H93.2081C90.0675 223.597 87.3666 221.486 86.7698 218.572L70.5642 139.663C69.7476 135.798 72.8568 132.23 77.0024 132.23Z" fill="#B2B2B2"/>
<path d="M71.5691 132.23H165.914C169.023 132.23 171.692 134.282 172.352 137.166L190.128 216.075C191.007 219.94 187.898 223.597 183.69 223.597H87.7747C84.6341 223.597 81.9332 221.486 81.3365 218.572L65.1308 139.663C64.3143 135.798 67.4235 132.23 71.5691 132.23Z" fill="#D1D1D1"/>
<path d="M193.017 216.848H257.494C259.473 216.848 261.043 218.364 261.043 220.207C261.043 222.08 259.441 223.567 257.494 223.567H191.761L193.017 216.848Z" fill="#B2B2B2"/>
<path d="M129.984 175.847C129.984 181.229 125.399 185.57 119.715 185.57C114.03 185.57 109.445 181.199 109.445 175.847C109.445 170.466 114.062 166.125 119.715 166.125C125.399 166.125 129.984 170.466 129.984 175.847Z" fill="white"/>
<path d="M297.788 112.399L332.272 165.114L249.737 193.003L261.043 216.134C261.043 216.134 331.613 208.642 365.72 183.756C368.861 181.467 370.431 177.75 369.897 174.034C368.295 162.141 361.449 133.271 332.272 92.2409C326.337 83.8862 314.528 81.359 305.326 86.4134C295.747 91.6462 292.387 103.242 297.788 112.399Z" fill="#F7EBE7"/>
</svg>
