<svg width="229" height="56" viewBox="0 0 229 56" fill="none" xmlns="http://www.w3.org/2000/svg">
<path fill-rule="evenodd" clip-rule="evenodd" d="M0.290275 35.9985L26.6451 56L53 35.9984C51.8616 32.7698 49.9506 30.0504 47.5107 27.8402C49.8286 25.6528 51.6356 22.9873 52.7081 19.8445L26.1413 5.88217e-06L-1.88424e-06 20.1573C1.14972 23.3159 3.0409 25.9806 5.44216 28.1523C3.1634 30.3048 1.3757 32.9202 0.290275 35.9985ZM47.5107 27.8402C37.0445 37.7172 16.1612 37.8466 5.44216 28.1523C15.927 18.2485 36.8075 18.1445 47.5107 27.8402Z" fill="url(#paint0_angular_2_321)"/>
<path d="M70.312 17.696V31.808C70.312 33.792 70.792 35.264 71.752 36.224C72.7333 37.184 74.088 37.664 75.816 37.664C77.5227 37.664 78.856 37.184 79.816 36.224C80.7973 35.264 81.288 33.792 81.288 31.808V17.696H84.2V31.776C84.2 33.632 83.8267 35.2 83.08 36.48C82.3333 37.7387 81.32 38.6773 80.04 39.296C78.7813 39.9147 77.3627 40.224 75.784 40.224C74.2053 40.224 72.776 39.9147 71.496 39.296C70.2373 38.6773 69.2347 37.7387 68.488 36.48C67.7627 35.2 67.4 33.632 67.4 31.776V17.696H70.312ZM95.2658 40.288C93.9218 40.288 92.7164 40.064 91.6498 39.616C90.5831 39.1467 89.7404 38.5067 89.1218 37.696C88.5031 36.864 88.1618 35.9147 88.0978 34.848H91.1058C91.1911 35.7227 91.5964 36.4373 92.3218 36.992C93.0684 37.5467 94.0391 37.824 95.2338 37.824C96.3431 37.824 97.2178 37.5787 97.8578 37.088C98.4978 36.5973 98.8178 35.9787 98.8178 35.232C98.8178 34.464 98.4764 33.8987 97.7938 33.536C97.1111 33.152 96.0551 32.7787 94.6258 32.416C93.3244 32.0747 92.2578 31.7333 91.4258 31.392C90.6151 31.0293 89.9111 30.5067 89.3138 29.824C88.7378 29.12 88.4498 28.2027 88.4498 27.072C88.4498 26.176 88.7164 25.3547 89.2498 24.608C89.7831 23.8613 90.5404 23.2747 91.5218 22.848C92.5031 22.4 93.6231 22.176 94.8818 22.176C96.8231 22.176 98.3911 22.6667 99.5858 23.648C100.78 24.6293 101.42 25.9733 101.506 27.68H98.5938C98.5298 26.7627 98.1564 26.0267 97.4738 25.472C96.8124 24.9173 95.9164 24.64 94.7858 24.64C93.7404 24.64 92.9084 24.864 92.2898 25.312C91.6711 25.76 91.3618 26.3467 91.3618 27.072C91.3618 27.648 91.5431 28.128 91.9058 28.512C92.2898 28.8747 92.7591 29.1733 93.3138 29.408C93.8898 29.6213 94.6791 29.8667 95.6818 30.144C96.9404 30.4853 97.9644 30.8267 98.7538 31.168C99.5431 31.488 100.215 31.9787 100.77 32.64C101.346 33.3013 101.644 34.1653 101.666 35.232C101.666 36.192 101.399 37.056 100.866 37.824C100.332 38.592 99.5751 39.2 98.5938 39.648C97.6338 40.0747 96.5244 40.288 95.2658 40.288ZM121.777 30.56C121.777 31.1147 121.745 31.7013 121.681 32.32H107.665C107.771 34.048 108.358 35.4027 109.425 36.384C110.513 37.344 111.825 37.824 113.361 37.824C114.619 37.824 115.665 37.536 116.497 36.96C117.35 36.3627 117.947 35.5733 118.289 34.592H121.425C120.955 36.2773 120.017 37.6533 118.609 38.72C117.201 39.7653 115.451 40.288 113.361 40.288C111.697 40.288 110.203 39.9147 108.881 39.168C107.579 38.4213 106.555 37.3653 105.809 36C105.062 34.6133 104.689 33.0133 104.689 31.2C104.689 29.3867 105.051 27.7973 105.777 26.432C106.502 25.0667 107.515 24.0213 108.817 23.296C110.139 22.5493 111.654 22.176 113.361 22.176C115.025 22.176 116.497 22.5387 117.777 23.264C119.057 23.9893 120.038 24.992 120.721 26.272C121.425 27.5307 121.777 28.96 121.777 30.56ZM118.769 29.952C118.769 28.8427 118.523 27.8933 118.033 27.104C117.542 26.2933 116.87 25.6853 116.017 25.28C115.185 24.8533 114.257 24.64 113.233 24.64C111.761 24.64 110.502 25.1093 109.457 26.048C108.433 26.9867 107.846 28.288 107.697 29.952H118.769ZM128.532 25.312C129.044 24.3093 129.77 23.5307 130.708 22.976C131.668 22.4213 132.831 22.144 134.196 22.144V25.152H133.428C130.164 25.152 128.532 26.9227 128.532 30.464V40H125.62V22.464H128.532V25.312ZM140.47 37.632H148.278V40H137.558V17.696H140.47V37.632ZM152.874 19.616C152.32 19.616 151.85 19.424 151.466 19.04C151.082 18.656 150.89 18.1867 150.89 17.632C150.89 17.0773 151.082 16.608 151.466 16.224C151.85 15.84 152.32 15.648 152.874 15.648C153.408 15.648 153.856 15.84 154.218 16.224C154.602 16.608 154.794 17.0773 154.794 17.632C154.794 18.1867 154.602 18.656 154.218 19.04C153.856 19.424 153.408 19.616 152.874 19.616ZM154.282 22.464V40H151.37V22.464H154.282ZM162.797 24.864V35.2C162.797 36.0533 162.979 36.6613 163.341 37.024C163.704 37.3653 164.333 37.536 165.229 37.536H167.373V40H164.749C163.128 40 161.912 39.6267 161.101 38.88C160.291 38.1333 159.885 36.9067 159.885 35.2V24.864H157.613V22.464H159.885V18.048H162.797V22.464H167.373V24.864H162.797ZM186.902 30.56C186.902 31.1147 186.87 31.7013 186.806 32.32H172.79C172.896 34.048 173.483 35.4027 174.55 36.384C175.638 37.344 176.95 37.824 178.486 37.824C179.744 37.824 180.79 37.536 181.622 36.96C182.475 36.3627 183.072 35.5733 183.414 34.592H186.55C186.08 36.2773 185.142 37.6533 183.734 38.72C182.326 39.7653 180.576 40.288 178.486 40.288C176.822 40.288 175.328 39.9147 174.006 39.168C172.704 38.4213 171.68 37.3653 170.934 36C170.187 34.6133 169.814 33.0133 169.814 31.2C169.814 29.3867 170.176 27.7973 170.902 26.432C171.627 25.0667 172.64 24.0213 173.942 23.296C175.264 22.5493 176.779 22.176 178.486 22.176C180.15 22.176 181.622 22.5387 182.902 23.264C184.182 23.9893 185.163 24.992 185.846 26.272C186.55 27.5307 186.902 28.96 186.902 30.56ZM183.894 29.952C183.894 28.8427 183.648 27.8933 183.158 27.104C182.667 26.2933 181.995 25.6853 181.142 25.28C180.31 24.8533 179.382 24.64 178.358 24.64C176.886 24.64 175.627 25.1093 174.582 26.048C173.558 26.9867 172.971 28.288 172.822 29.952H183.894Z" fill="black"/>
<defs>
<radialGradient id="paint0_angular_2_321" cx="0" cy="0" r="1" gradientUnits="userSpaceOnUse" gradientTransform="translate(26.5 28) rotate(-90.5423) scale(28.0013 26.5006)">
<stop stop-color="#0175FD"/>
<stop offset="0.385" stop-color="#2EA9FF"/>
<stop offset="1" stop-color="#3834FF"/>
</radialGradient>
</defs>
</svg>
